<?xml version="1.0" encoding="utf-8"?>
<!-- Generator: Adobe Illustrator 16.1.0, SVG Export Plug-In . SVG Version: 6.00 Build 0)  -->
<!DOCTYPE svg PUBLIC "-//W3C//DTD SVG 1.1//EN" "http://www.w3.org/Graphics/SVG/1.1/DTD/svg11.dtd">
<svg version="1.1" id="Layer_1" xmlns="http://www.w3.org/2000/svg" xmlns:xlink="http://www.w3.org/1999/xlink" x="0px" y="0px"
	 width="70.87px" height="62.36px" viewBox="0 0 70.87 62.36" enable-background="new 0 0 70.87 62.36" xml:space="preserve">
<g>
	<g>
		<path fill="#00539B" d="M49.414,46.444c-0.917,1.096-1.934,2.107-3.029,3.021l3.882,4.658c1.337-1.115,2.577-2.346,3.7-3.674
			l0.094-0.111c0.33-0.393,0.648-0.795,0.957-1.203l-3.234-2.441c-0.318,0.316-0.645,0.621-0.977,0.918L49.414,46.444z"/>
		<path fill="#00539B" d="M39.638,43.989c-0.525,0.35-1.074,0.666-1.641,0.953l0.415,0.824c-0.217,0.109-0.436,0.213-0.656,0.312
			l5.567,12.381c2.126-0.953,4.149-2.16,6.007-3.586l-8.27-10.768c-0.297,0.227-0.6,0.445-0.912,0.65L39.638,43.989z"/>
		<path fill="#00539B" d="M17.331,22.415L5.307,14.907c-1.007,1.613-1.86,3.318-2.548,5.088c4.479,1.615,8.936,3.279,13.373,4.994
			C16.455,24.1,16.854,23.237,17.331,22.415"/>
		<path fill="#00539B" d="M36.832,9.838c1.469,0.414,2.895,0.98,4.246,1.688l1.599-3.055c0.819,0.428,1.616,0.9,2.384,1.416
			l2.71-4.037c-0.915-0.615-1.862-1.18-2.839-1.689l-0.586-0.299c-1.281-0.635-2.607-1.18-3.967-1.629
			c-0.43-0.141-0.861-0.273-1.297-0.396c-0.836-0.234-1.683-0.434-2.538-0.596l-1.312,6.898c0.656,0.125,1.307,0.277,1.95,0.459
			L36.832,9.838z"/>
		<path fill="#00539B" d="M11.028,15.817c1.062-1.064,2.209-2.018,3.416-2.852l0.998,1.086c0.672-0.748,1.396-1.461,2.173-2.121
			L13.59,6.174c-1.052,0.736-2.058,1.539-3.007,2.404l-0.09,0.08c-0.609,0.562-1.198,1.146-1.76,1.756
			c-0.661,0.717-1.287,1.465-1.876,2.242c-0.31,0.408-0.608,0.824-0.897,1.248l2.799,1.904c0.345-0.316,0.696-0.621,1.053-0.914
			L11.028,15.817z"/>
		<path fill="#00539B" d="M21.772,11.584c0.383-0.18,0.771-0.348,1.162-0.506l-2.057-5.115c0.462-0.186,0.93-0.359,1.402-0.52
			l0.355,1.045l0.146,0.432l0.338,0.994c0.756-0.258,1.523-0.479,2.301-0.658l-0.04-1.068c0.939-0.213,1.892-0.369,2.849-0.473
			l-0.519-4.836c-2.163,0.232-4.302,0.701-6.356,1.389l-0.137,0.047c-0.531,0.18-1.056,0.375-1.574,0.584L19.46,2.973
			c-1.69,0.693-3.326,1.541-4.873,2.533l4.516,7.039l0.245,0.383l0.567,0.885c0.693-0.445,1.414-0.848,2.158-1.207L21.772,11.584z"
			/>
		<path fill="#00539B" d="M48.656,14.532c0.244,0.266,0.482,0.535,0.715,0.811l-0.529,0.637c0.491,0.588,0.953,1.201,1.383,1.836
			l0.674-0.457c0.178,0.264,0.35,0.529,0.518,0.799l5.151-3.199c-0.921-1.482-1.973-2.887-3.138-4.189l-0.32-0.352
			c-1.324-1.432-2.786-2.732-4.357-3.881l-1.949,2.67c1.4,1.021,2.701,2.18,3.879,3.453L48.656,14.532z"/>
		<path fill="#00539B" d="M8.794,29.899c0.057-1.209,0.213-2.416,0.467-3.602l-1.014-0.217c0.194-0.906,0.443-1.803,0.744-2.68
			L2.349,21.12c-1.135,3.303-1.696,6.811-1.636,10.314l7.022-0.119c-0.008-0.488-0.001-0.977,0.021-1.463L8.794,29.899z"/>
		<path fill="#00539B" d="M18.325,54.69c-0.389-0.205-0.771-0.422-1.15-0.645l2.814-4.742c-0.805-0.477-1.58-1.008-2.314-1.586
			l-5.453,6.928c0.772,0.607,1.574,1.178,2.4,1.707c0.286,0.184,0.576,0.361,0.867,0.535c0.424,0.25,0.854,0.492,1.291,0.723
			c0.24,0.127,0.482,0.252,0.727,0.373c1.389,0.688,2.829,1.27,4.307,1.736l1.468-4.637c-1.458-0.463-2.874-1.055-4.226-1.771
			L18.325,54.69z"/>
		<path fill="#00539B" d="M28.611,46.536l-0.466,3.48c-0.371-0.055-0.74-0.119-1.107-0.195l-0.98,4.748
			c-0.502-0.105-1.001-0.223-1.496-0.359l-1.6,5.848c1.268,0.348,2.561,0.613,3.865,0.793c0.267,0.035,0.534,0.068,0.803,0.098
			c0.82,0.092,1.645,0.148,2.471,0.17c0.016-4.809,0.088-9.617,0.215-14.422C29.746,46.673,29.177,46.62,28.611,46.536"/>
		<path fill="#00539B" d="M37.914,54.302l-0.284-0.945c-0.72,0.02-1.432,0.006-2.135-0.039L35.2,51.878
			c-0.311,0.064-0.621,0.121-0.934,0.17l-0.204-1.281c-0.662,0.105-1.329,0.176-1.999,0.215l0.074,1.297
			c-0.314,0.018-0.631,0.029-0.946,0.033l0.109,8.816c1.789-0.021,3.577-0.205,5.333-0.545l0.343-0.068
			c1.758-0.361,3.48-0.879,5.138-1.541l-2.113-5.297C39.313,53.915,38.617,54.124,37.914,54.302"/>
		<path fill="#00539B" d="M15.831,35.806l-1.275,0.307c0.062-0.758,0.178-1.492,0.338-2.197c-1.707,0.225-3.42,0.422-5.136,0.588
			c-0.116-0.682-0.198-1.367-0.248-2.057c-2.916,0.105-5.833,0.168-8.753,0.188c0.109,1.926,0.406,3.842,0.881,5.707
			c0.162,0.643,0.348,1.275,0.551,1.904c0.277,0.848,0.588,1.68,0.937,2.498c4.264-2.193,8.599-4.236,12.993-6.129
			C16.015,36.347,15.92,36.077,15.831,35.806"/>
		<path fill="#00539B" d="M12.236,49.917c0.437-0.369,0.466-1.17,0.377-2c-0.096-0.832-0.308-1.699-0.521-2.244
			c0.265-0.391,0.536-0.779,0.812-1.158l-0.018-0.023c-0.445,0.146-0.896,0.287-1.35,0.418c-0.462-0.398-1.207-0.885-1.98-1.236
			c-0.773-0.346-1.586-0.557-2.191-0.24c-0.045,0.025-0.089,0.051-0.132,0.078c-0.188-0.373-0.37-0.752-0.54-1.131l-3.081,1.453
			c1.801,3.828,4.438,7.289,7.666,10.041l1.162-1.359l0.015,0.012l1.102-1.336C13.103,50.78,12.661,50.356,12.236,49.917"/>
		<path fill="#00539B" d="M32.274,8.934c0.637-0.102,1.285-0.176,1.941-0.221l1.146-7.674c-2.131-0.32-4.301-0.408-6.455-0.264
			l0.128,1.918l0.461,6.879l0.205,3.068c0.63-0.232,1.281-0.428,1.952-0.59C31.837,11.008,32.044,9.969,32.274,8.934"/>
	</g>
	<g>
		<path fill="#5A5A5A" d="M34.951,24.586c-0.12-0.567-0.567-0.907-1.214-0.907c-0.954,0-1.514,0.66-1.514,1.82
			c0,1.174,0.6,1.827,1.494,1.827c0.773,0,1.314-0.507,1.347-1.34H33.75v-0.66h2.047v2.587h-0.527l-0.133-0.606
			c-0.354,0.479-0.867,0.733-1.507,0.733c-1.3,0-2.227-0.987-2.227-2.521c0-1.547,0.907-2.527,2.28-2.527
			c1.173,0,1.92,0.606,2.061,1.594H34.951z"/>
		<path fill="#5A5A5A" d="M37.335,23.119v4.067h2.367v0.727h-3.168v-4.794H37.335z"/>
		<path fill="#5A5A5A" d="M44.318,25.52c0,1.573-0.88,2.527-2.3,2.527c-1.421,0-2.301-0.947-2.301-2.527
			c0-1.581,0.88-2.527,2.301-2.527C43.438,22.992,44.318,23.945,44.318,25.52z M40.531,25.52c0,1.167,0.566,1.833,1.487,1.833
			c0.92,0,1.486-0.666,1.486-1.833c0-1.174-0.566-1.834-1.486-1.834C41.104,23.686,40.531,24.346,40.531,25.52z"/>
		<path fill="#5A5A5A" d="M46.97,23.119c1,0,1.5,0.399,1.5,1.213c0,0.46-0.24,0.827-0.64,0.994c0.546,0.153,0.84,0.553,0.84,1.167
			c0,0.84-0.594,1.42-1.674,1.42h-2.101v-4.794H46.97z M45.676,25.065h1.134c0.58,0,0.86-0.193,0.86-0.673
			c0-0.414-0.28-0.607-0.834-0.607h-1.16V25.065z M45.676,27.206h1.254c0.613,0,0.92-0.246,0.92-0.753
			c0-0.534-0.327-0.733-0.967-0.733h-1.207V27.206z"/>
		<path fill="#5A5A5A" d="M51.333,23.119l1.761,4.794H52.24l-0.427-1.24h-1.867l-0.434,1.24H48.68l1.753-4.794H51.333z
			 M50.166,26.006h1.427l-0.713-2.08L50.166,26.006z"/>
		<path fill="#5A5A5A" d="M54.217,23.119v4.067h2.367v0.727h-3.167v-4.794H54.217z"/>
		<path fill="#5A5A5A" d="M34.277,30.732c-0.033-0.54-0.433-0.866-1.06-0.866c-0.56,0-0.887,0.3-0.887,0.634
			c0,0.493,0.507,0.64,1.133,0.8c1.047,0.267,1.707,0.5,1.707,1.453c0,0.874-0.693,1.501-1.86,1.501c-1.2,0-1.874-0.601-1.92-1.667
			h0.773c0.047,0.627,0.494,0.979,1.214,0.979c0.587,0,0.934-0.333,0.934-0.687c0-0.146-0.107-0.366-0.26-0.507
			c-0.227-0.206-0.587-0.267-1.054-0.387c-0.993-0.26-1.467-0.627-1.467-1.427c0-0.754,0.647-1.354,1.78-1.354
			c1.047,0,1.721,0.594,1.727,1.526H34.277z"/>
		<path fill="#5A5A5A" d="M36.541,29.333v1.887h2.267v-1.887h0.8v4.794h-0.8v-2.193h-2.267v2.193H35.74v-4.794H36.541z"/>
		<path fill="#5A5A5A" d="M42.586,29.333l1.76,4.794h-0.854l-0.427-1.24h-1.867l-0.433,1.24h-0.834l1.754-4.794H42.586z
			 M41.419,32.22h1.427l-0.714-2.08L41.419,32.22z"/>
		<path fill="#5A5A5A" d="M46.496,29.333c0.399,0,0.733,0.006,1.04,0.173c0.434,0.233,0.667,0.681,0.667,1.301
			c0,0.513-0.193,0.92-0.547,1.18c-0.287,0.214-0.634,0.254-1.101,0.254h-1.087v1.887h-0.8v-4.794H46.496z M45.469,31.54h1.033
			c0.601,0,0.9-0.181,0.9-0.754c0-0.54-0.28-0.76-0.854-0.76h-1.08V31.54z"/>
		<path fill="#5A5A5A" d="M52.1,29.333v0.7h-2.653v1.253h2.447v0.674h-2.447v1.447h2.74v0.72h-3.527v-4.794H52.1z"/>
		<path fill="#5A5A5A" d="M54.757,29.333c0.14,0,0.227,0.006,0.253,0.006c0.841,0,1.354,0.501,1.354,1.334
			c0,0.547-0.253,0.947-0.687,1.113c0.453,0.147,0.547,0.44,0.573,0.961l0.04,0.687c0.014,0.28,0.021,0.453,0.2,0.554v0.14h-0.894
			c-0.093-0.174-0.106-0.38-0.12-0.634L55.45,32.92c-0.026-0.5-0.127-0.767-0.76-0.767c-0.014,0-0.067,0-0.153,0h-1.054v1.974
			h-0.794v-4.794H54.757z M53.477,31.479h1.141c0.626,0,0.939-0.187,0.939-0.747c0-0.553-0.319-0.727-0.92-0.727h-1.16V31.479z"/>
		<path fill="#5A5A5A" d="M59.935,30.732c-0.033-0.54-0.434-0.866-1.061-0.866c-0.56,0-0.887,0.3-0.887,0.634
			c0,0.493,0.507,0.64,1.134,0.8c1.047,0.267,1.707,0.5,1.707,1.453c0,0.874-0.693,1.501-1.86,1.501c-1.2,0-1.874-0.601-1.921-1.667
			h0.773c0.047,0.627,0.494,0.979,1.214,0.979c0.587,0,0.934-0.333,0.934-0.687c0-0.146-0.106-0.366-0.26-0.507
			c-0.227-0.206-0.587-0.267-1.054-0.387c-0.993-0.26-1.467-0.627-1.467-1.427c0-0.754,0.646-1.354,1.78-1.354
			c1.047,0,1.721,0.594,1.727,1.526H59.935z"/>
		<path fill="#5A5A5A" d="M34.871,37.047c-0.087-0.58-0.527-0.914-1.214-0.914c-0.92,0-1.44,0.654-1.44,1.781
			c0,1.16,0.553,1.84,1.427,1.84c0.7,0,1.2-0.446,1.253-1.134h0.78c-0.04,1.087-0.887,1.854-2.067,1.854
			c-1.367,0-2.207-0.954-2.207-2.527c0-1.594,0.847-2.527,2.267-2.527c1.167,0,1.9,0.627,1.987,1.627H34.871z"/>
		<path fill="#5A5A5A" d="M40.615,37.947c0,1.573-0.88,2.527-2.301,2.527c-1.42,0-2.3-0.947-2.3-2.527c0-1.581,0.88-2.527,2.3-2.527
			C39.735,35.42,40.615,36.373,40.615,37.947z M36.828,37.947c0,1.167,0.566,1.833,1.486,1.833s1.487-0.666,1.487-1.833
			c0-1.174-0.567-1.834-1.487-1.834C37.401,36.113,36.828,36.773,36.828,37.947z"/>
		<path fill="#5A5A5A" d="M42.353,35.547l1.154,3.834l1.166-3.834h1.161v4.794h-0.761V36.38l-1.187,3.961h-0.78l-1.174-3.961v3.961
			h-0.74v-4.794H42.353z"/>
		<path fill="#5A5A5A" d="M47.784,35.547l1.154,3.834l1.166-3.834h1.161v4.794h-0.761V36.38l-1.187,3.961h-0.78l-1.174-3.961v3.961
			h-0.74v-4.794H47.784z"/>
		<path fill="#5A5A5A" d="M52.836,35.547v2.98c0,0.813,0.333,1.213,1.094,1.213c0.76,0,1.1-0.399,1.1-1.213v-2.98h0.801v3.027
			c0,1.233-0.707,1.9-1.9,1.9c-1.247,0-1.895-0.647-1.895-1.9v-3.027H52.836z"/>
		<path fill="#5A5A5A" d="M57.434,35.547l2.233,3.587v-3.587h0.773v4.794h-0.84l-2.247-3.588v3.588h-0.767v-4.794H57.434z"/>
		<path fill="#5A5A5A" d="M62.038,35.547v4.794h-0.801v-4.794H62.038z"/>
		<path fill="#5A5A5A" d="M66.146,35.547v0.7h-1.474v4.094H63.88v-4.094h-1.48v-0.7H66.146z"/>
		<path fill="#5A5A5A" d="M67.203,35.547l1.173,2.18l1.134-2.18h0.921l-1.647,2.9v1.894h-0.8v-1.86l-1.768-2.934H67.203z"/>
	</g>
</g>
</svg>
