<?xml version="1.0" encoding="utf-8"?>
<!-- Generator: Adobe Illustrator 15.0.2, SVG Export Plug-In . SVG Version: 6.00 Build 0)  -->
<!DOCTYPE svg PUBLIC "-//W3C//DTD SVG 1.1//EN" "http://www.w3.org/Graphics/SVG/1.1/DTD/svg11.dtd">
<svg version="1.1" id="Lag_1" xmlns="http://www.w3.org/2000/svg" xmlns:xlink="http://www.w3.org/1999/xlink" x="0px" y="0px"
	 width="291px" height="166px" viewBox="0 0 291 166" enable-background="new 0 0 291 166" xml:space="preserve">
<g>
	<g>
		<polygon fill="#FFCB05" points="147.804,104.92 61.575,57.597 51.75,104.799 		"/>
		<polygon fill="#FFF200" points="147.807,104.912 121.531,6.747 79.813,37.065 		"/>
		<polygon fill="#FFCB05" points="147.79,109.63 194.438,25.608 147.786,13.592 		"/>
		<polygon fill="#F7941E" points="147.79,109.631 248.304,94.678 220.894,51.021 		"/>
	</g>
	<g>
		<g>
			<path fill="#58595B" d="M33.357,118.815l-0.615,0.505c-0.671-1.069-1.588-1.604-2.751-1.604c-0.475,0-0.908,0.117-1.299,0.349
				c-0.391,0.233-0.699,0.549-0.923,0.947s-0.336,0.831-0.336,1.296c0,0.624,0.211,1.11,0.633,1.457
				c0.422,0.348,1.027,0.707,1.815,1.079l2.593,1.354c1.031,0.65,1.547,1.55,1.547,2.698c0,0.729-0.199,1.396-0.598,2
				s-0.924,1.078-1.578,1.424s-1.345,0.519-2.074,0.519c-0.926,0-1.743-0.263-2.45-0.789s-1.222-1.236-1.544-2.129l0.756-0.338
				c0.308,0.762,0.735,1.36,1.283,1.795c0.548,0.436,1.213,0.653,1.995,0.653c0.589,0,1.14-0.142,1.652-0.426
				s0.923-0.671,1.23-1.162s0.461-1.029,0.461-1.615c0-0.466-0.133-0.867-0.4-1.204s-0.568-0.605-0.905-0.804
				s-0.813-0.448-1.428-0.747l-2.448-1.296c-0.938-0.58-1.406-1.39-1.406-2.43c0-0.662,0.148-1.255,0.444-1.78
				s0.708-0.932,1.237-1.222s1.127-0.435,1.795-0.435c0.686,0,1.328,0.171,1.927,0.514S33.032,118.229,33.357,118.815z"/>
			<path fill="#58595B" d="M47.429,118.67v1.187c-0.521-0.639-1.201-1.155-2.039-1.549s-1.676-0.591-2.514-0.591
				c-0.832,0-1.623,0.167-2.371,0.499c-0.749,0.333-1.409,0.791-1.982,1.376c-0.573,0.584-1.02,1.255-1.34,2.013
				s-0.481,1.543-0.481,2.357c0,0.782,0.161,1.538,0.483,2.266s0.768,1.372,1.336,1.931c0.592,0.56,1.271,1.012,2.039,1.356
				s1.54,0.516,2.316,0.516c0.524,0,1.077-0.088,1.657-0.266c0.58-0.177,1.126-0.424,1.639-0.74s0.932-0.671,1.257-1.063v1.187
				c-1.356,1.128-2.862,1.692-4.518,1.692c-1.236,0-2.399-0.314-3.489-0.943c-1.09-0.628-1.96-1.477-2.61-2.546
				s-0.976-2.222-0.976-3.458c0-1.257,0.321-2.421,0.964-3.494s1.51-1.922,2.6-2.549s2.266-0.94,3.529-0.94
				c0.545,0,1.084,0.068,1.619,0.205c0.535,0.136,1.047,0.336,1.538,0.6S47.024,118.295,47.429,118.67z"/>
			<path fill="#58595B" d="M51.208,122.845h8.244v-5.757h0.866v13.57h-0.866v-7h-8.244v7h-0.861v-13.57h0.861V122.845z"/>
			<path fill="#58595B" d="M63.254,117.088l3.814,11.663l5.076-12.349l5.076,12.349l3.762-11.663h0.866l-4.57,14.019l-5.186-12.546
				l-5.168,12.546l-4.535-14.019H63.254z"/>
			<path fill="#58595B" d="M91.208,126.194H85.25l-1.819,4.465h-0.883l5.691-14.023l5.669,14.023h-0.883L91.208,126.194z
				 M90.883,125.385l-2.646-6.552l-2.663,6.552H90.883z"/>
			<path fill="#58595B" d="M99.326,130.659h-3.472v-13.57h2.716c0.624,0,1.156,0.051,1.597,0.151
				c0.441,0.102,0.845,0.314,1.211,0.64c0.756,0.656,1.134,1.592,1.134,2.808c0,1.254-0.521,2.178-1.564,2.773
				c0.548,0.111,1.036,0.327,1.463,0.648c0.428,0.32,0.759,0.72,0.993,1.197s0.352,1.002,0.352,1.573
				c0,1.157-0.42,2.093-1.261,2.808c-0.439,0.372-0.908,0.627-1.406,0.765S100.002,130.659,99.326,130.659z M96.715,117.897v5.344
				h1.494h0.435c0.434,0,0.803-0.031,1.109-0.095c0.306-0.063,0.602-0.198,0.886-0.406c0.378-0.275,0.641-0.583,0.789-0.923
				s0.222-0.759,0.222-1.257c0-0.469-0.092-0.899-0.277-1.292s-0.464-0.706-0.839-0.94c-0.308-0.193-0.637-0.313-0.989-0.36
				s-0.797-0.07-1.336-0.07H96.715z M96.715,124.054v5.796h2.07c0.645,0,1.175-0.029,1.593-0.088s0.811-0.204,1.18-0.435
				c0.888-0.598,1.332-1.402,1.332-2.413c0-0.516-0.123-0.996-0.369-1.441s-0.59-0.775-1.033-0.989
				c-0.577-0.287-1.531-0.431-2.861-0.431H96.715z"/>
			<path fill="#58595B" d="M117.867,117.897h-4.61v4.931h4.482v0.813h-4.482v7.018h-0.861v-13.57h5.471V117.897z"/>
			<path fill="#58595B" d="M127.013,116.908c1.248,0,2.413,0.313,3.496,0.94c1.082,0.627,1.943,1.477,2.584,2.549
				c0.64,1.072,0.96,2.231,0.96,3.476s-0.32,2.403-0.96,3.474c-0.641,1.071-1.502,1.921-2.584,2.549
				c-1.083,0.629-2.248,0.943-3.496,0.943s-2.414-0.314-3.496-0.943c-1.083-0.628-1.944-1.478-2.584-2.549
				c-0.64-1.07-0.96-2.229-0.96-3.474c0-0.935,0.183-1.825,0.549-2.672s0.877-1.594,1.534-2.241s1.411-1.151,2.266-1.512
				C125.175,117.088,126.072,116.908,127.013,116.908z M127.013,117.717c-1.104,0-2.131,0.278-3.078,0.835
				c-0.948,0.557-1.701,1.31-2.259,2.259c-0.559,0.949-0.837,1.97-0.837,3.063s0.279,2.114,0.837,3.063
				c0.558,0.949,1.311,1.702,2.259,2.259c0.947,0.557,1.974,0.835,3.078,0.835c1.099,0,2.123-0.28,3.074-0.841
				c0.95-0.561,1.705-1.314,2.263-2.259c0.559-0.945,0.837-1.964,0.837-3.057c0-0.82-0.163-1.607-0.488-2.36
				s-0.771-1.412-1.338-1.978c-0.567-0.565-1.227-1.01-1.98-1.333S127.839,117.717,127.013,117.717z"/>
			<path fill="#58595B" d="M144.78,125.293v-8.205h0.861v8.459c0,0.891-0.05,1.604-0.149,2.14s-0.356,1.059-0.769,1.569
				c-0.445,0.507-0.997,0.897-1.655,1.171c-0.658,0.273-1.335,0.411-2.032,0.411c-0.7,0-1.378-0.137-2.032-0.411
				c-0.655-0.274-1.208-0.665-1.659-1.171c-0.413-0.516-0.669-1.04-0.769-1.573s-0.149-1.245-0.149-2.136v-8.459h0.866v8.205
				c0,0.829,0.039,1.506,0.116,2.03s0.272,0.989,0.583,1.393c0.319,0.41,0.768,0.731,1.347,0.965
				c0.578,0.232,1.145,0.349,1.698,0.349c0.557,0,1.123-0.117,1.698-0.349c0.576-0.233,1.023-0.555,1.343-0.965
				c0.311-0.401,0.505-0.865,0.584-1.391S144.78,126.122,144.78,125.293z"/>
			<path fill="#58595B" d="M161.084,117.088v14.019l-11.395-12.111v11.663h-0.861v-13.75l11.395,12.023v-11.843H161.084z"/>
			<path fill="#58595B" d="M164.398,130.659v-13.57h2.448c0.706,0,1.342,0.048,1.907,0.143c0.565,0.096,1.11,0.27,1.633,0.523
				s1.023,0.601,1.5,1.043c0.697,0.647,1.231,1.414,1.602,2.298c0.371,0.885,0.557,1.816,0.557,2.795
				c0,0.946-0.18,1.849-0.539,2.707c-0.358,0.858-0.875,1.611-1.549,2.259c-0.363,0.352-0.74,0.646-1.131,0.881
				c-0.391,0.236-0.796,0.421-1.215,0.554c-0.419,0.134-0.85,0.228-1.292,0.284s-0.933,0.083-1.472,0.083H164.398z M165.26,129.85
				h1.569c0.949,0,1.791-0.121,2.525-0.362c0.734-0.242,1.41-0.667,2.028-1.277c0.58-0.58,1.025-1.242,1.336-1.986
				c0.31-0.744,0.466-1.522,0.466-2.333c0-0.867-0.171-1.693-0.51-2.479c-0.341-0.785-0.825-1.465-1.455-2.039
				c-0.609-0.551-1.263-0.935-1.962-1.151s-1.508-0.325-2.428-0.325h-1.569V129.85z"/>
			<path fill="#58595B" d="M183.823,126.194h-5.959l-1.819,4.465h-0.884l5.691-14.023l5.669,14.023h-0.884L183.823,126.194z
				 M183.498,125.385l-2.646-6.552l-2.663,6.552H183.498z"/>
			<path fill="#58595B" d="M191.492,117.897v12.762h-0.866v-12.762h-3.507v-0.809h7.884v0.809H191.492z"/>
			<path fill="#58595B" d="M197.825,117.088v13.57h-0.861v-13.57H197.825z"/>
			<path fill="#58595B" d="M207.366,116.908c1.248,0,2.413,0.313,3.495,0.94c1.083,0.627,1.944,1.477,2.584,2.549
				c0.641,1.072,0.961,2.231,0.961,3.476s-0.32,2.403-0.961,3.474c-0.64,1.071-1.501,1.921-2.584,2.549
				c-1.082,0.629-2.247,0.943-3.495,0.943s-2.414-0.314-3.496-0.943c-1.083-0.628-1.944-1.478-2.584-2.549
				c-0.641-1.07-0.96-2.229-0.96-3.474c0-0.935,0.183-1.825,0.549-2.672s0.877-1.594,1.534-2.241
				c0.656-0.647,1.411-1.151,2.265-1.512C205.528,117.088,206.426,116.908,207.366,116.908z M207.366,117.717
				c-1.105,0-2.131,0.278-3.079,0.835c-0.947,0.557-1.7,1.31-2.259,2.259c-0.558,0.949-0.837,1.97-0.837,3.063
				s0.279,2.114,0.837,3.063c0.559,0.949,1.312,1.702,2.259,2.259c0.948,0.557,1.974,0.835,3.079,0.835
				c1.099,0,2.123-0.28,3.073-0.841c0.951-0.561,1.705-1.314,2.264-2.259c0.558-0.945,0.837-1.964,0.837-3.057
				c0-0.82-0.162-1.607-0.487-2.36s-0.771-1.412-1.339-1.978c-0.566-0.565-1.227-1.01-1.979-1.333S208.192,117.717,207.366,117.717z
				"/>
			<path fill="#58595B" d="M229.163,117.088v14.019l-11.395-12.111v11.663h-0.861v-13.75l11.395,12.023v-11.843H229.163z"/>
			<path fill="#58595B" d="M243.926,117.897h-4.61v4.931h4.482v0.813h-4.482v7.018h-0.861v-13.57h5.472V117.897z"/>
			<path fill="#58595B" d="M253.071,116.908c1.248,0,2.413,0.313,3.495,0.94c1.083,0.627,1.944,1.477,2.584,2.549
				c0.641,1.072,0.961,2.231,0.961,3.476s-0.32,2.403-0.961,3.474c-0.64,1.071-1.501,1.921-2.584,2.549
				c-1.082,0.629-2.247,0.943-3.495,0.943s-2.414-0.314-3.496-0.943c-1.083-0.628-1.944-1.478-2.584-2.549
				c-0.641-1.07-0.96-2.229-0.96-3.474c0-0.935,0.183-1.825,0.549-2.672s0.877-1.594,1.534-2.241
				c0.656-0.647,1.411-1.151,2.265-1.512C251.233,117.088,252.131,116.908,253.071,116.908z M253.071,117.717
				c-1.104,0-2.131,0.278-3.079,0.835c-0.947,0.557-1.7,1.31-2.259,2.259c-0.558,0.949-0.837,1.97-0.837,3.063
				s0.279,2.114,0.837,3.063c0.559,0.949,1.312,1.702,2.259,2.259c0.948,0.557,1.975,0.835,3.079,0.835
				c1.099,0,2.123-0.28,3.073-0.841c0.951-0.561,1.705-1.314,2.264-2.259c0.558-0.945,0.837-1.964,0.837-3.057
				c0-0.82-0.162-1.607-0.487-2.36s-0.771-1.412-1.339-1.978c-0.566-0.565-1.227-1.01-1.979-1.333S253.897,117.717,253.071,117.717z
				"/>
			<path fill="#58595B" d="M264.88,124.234l4.447,6.425h-0.993l-4.426-6.425h-0.435v6.425h-0.861v-13.57h1.691
				c0.712,0,1.306,0.041,1.78,0.121s0.912,0.267,1.313,0.56c0.914,0.645,1.371,1.617,1.371,2.918c0,0.765-0.165,1.414-0.494,1.947
				c-0.33,0.533-0.788,0.933-1.376,1.2C266.312,124.101,265.639,124.234,264.88,124.234z M263.474,123.421h1.099
				c0.536,0,0.988-0.038,1.357-0.114s0.709-0.248,1.02-0.514c0.636-0.516,0.954-1.229,0.954-2.14c0-0.34-0.054-0.671-0.161-0.996
				c-0.106-0.323-0.268-0.611-0.483-0.863c-0.215-0.252-0.48-0.448-0.797-0.589c-0.481-0.205-1.291-0.308-2.431-0.308h-0.558
				V123.421z"/>
		</g>
	</g>
	<g>
		<g>
			<path d="M21.131,142.013l-1.406,2.733c-0.732-0.598-1.512-0.896-2.338-0.896c-0.375,0-0.718,0.103-1.028,0.308
				c-0.322,0.193-0.483,0.469-0.483,0.826c0,0.346,0.144,0.609,0.431,0.791c0.27,0.176,0.647,0.343,1.134,0.501l0.896,0.272
				c1.025,0.299,1.849,0.735,2.47,1.31c0.586,0.58,0.879,1.38,0.879,2.399c0,1.641-0.469,2.859-1.406,3.656
				c-1.008,0.85-2.291,1.274-3.85,1.274c-1.699,0-3.29-0.516-4.772-1.547l1.512-2.848c1.061,0.938,2.106,1.406,3.138,1.406
				c0.445,0,0.841-0.12,1.187-0.36s0.519-0.577,0.519-1.011c0-0.439-0.19-0.756-0.571-0.949c-0.357-0.182-0.879-0.381-1.564-0.598
				c-0.809-0.217-1.488-0.463-2.039-0.738c-0.521-0.264-0.924-0.636-1.208-1.116s-0.426-1.14-0.426-1.978
				c0-0.902,0.196-1.699,0.589-2.391c0.416-0.703,0.976-1.239,1.679-1.608c0.686-0.369,1.488-0.554,2.408-0.554
				c0.68,0,1.412,0.103,2.197,0.308C19.836,141.397,20.522,141.667,21.131,142.013z"/>
			<path d="M30.724,140.809c0.99,0,1.934,0.167,2.83,0.501c0.914,0.352,1.717,0.838,2.408,1.459c0.68,0.609,1.233,1.354,1.661,2.232
				c0.404,0.826,0.606,1.755,0.606,2.786c0,1.084-0.179,2.08-0.536,2.988c-0.375,0.926-0.902,1.726-1.582,2.399
				c-0.363,0.363-0.738,0.671-1.125,0.923s-0.806,0.466-1.257,0.642c-0.908,0.357-1.91,0.536-3.006,0.536
				c-1.078,0-2.074-0.179-2.988-0.536c-0.926-0.363-1.723-0.885-2.391-1.564c-0.334-0.328-0.628-0.684-0.883-1.068
				s-0.488-0.828-0.699-1.332c-0.363-0.92-0.545-1.916-0.545-2.988c0-0.486,0.051-0.964,0.154-1.433s0.256-0.92,0.461-1.354
				c0.434-0.891,0.984-1.635,1.652-2.232c0.697-0.627,1.509-1.113,2.435-1.459C28.793,140.976,29.728,140.809,30.724,140.809z
				 M30.724,144.228c-0.691,0-1.327,0.167-1.907,0.501c-0.609,0.352-1.078,0.791-1.406,1.318c-0.346,0.574-0.519,1.16-0.519,1.758
				c0,0.744,0.173,1.436,0.519,2.074c0.352,0.639,0.814,1.125,1.389,1.459c0.604,0.346,1.245,0.519,1.925,0.519
				c0.691,0,1.333-0.173,1.925-0.519c0.574-0.328,1.037-0.814,1.389-1.459c0.346-0.621,0.519-1.313,0.519-2.074
				c0-0.615-0.173-1.201-0.519-1.758c-0.334-0.533-0.803-0.973-1.406-1.318C32.057,144.395,31.421,144.228,30.724,144.228z"/>
			<path d="M50.117,141.582v4.228c-0.346-0.469-0.797-0.841-1.354-1.116c-0.545-0.252-1.125-0.378-1.74-0.378
				c-0.709,0-1.333,0.167-1.872,0.501c-0.563,0.322-0.996,0.773-1.301,1.354c-0.299,0.557-0.448,1.192-0.448,1.907
				s0.155,1.351,0.466,1.907c0.316,0.58,0.75,1.02,1.301,1.318c0.574,0.311,1.21,0.466,1.907,0.466c0.586,0,1.143-0.126,1.67-0.378
				c0.545-0.275,1.002-0.63,1.371-1.063v4.228c-0.686,0.211-1.28,0.375-1.784,0.492c-0.439,0.094-0.882,0.141-1.327,0.141
				c-0.896,0-1.805-0.173-2.725-0.519c-0.287-0.111-0.564-0.24-0.831-0.387s-0.526-0.308-0.778-0.483s-0.507-0.378-0.765-0.606
				c-1.453-1.313-2.18-3.023-2.18-5.133c0-0.92,0.176-1.813,0.527-2.681c0.363-0.896,0.855-1.658,1.477-2.285
				c0.475-0.475,0.979-0.87,1.512-1.187c0.557-0.328,1.148-0.58,1.775-0.756c0.645-0.17,1.269-0.255,1.872-0.255
				C47.94,140.896,49.015,141.125,50.117,141.582z"/>
			<path d="M56.361,141.257v13.57h-3.524v-13.57H56.361z"/>
			<path d="M67.527,152.472h-4.86l-0.932,2.355h-3.744l5.221-13.57h3.85l5.115,13.57h-3.762L67.527,152.472z M66.578,149.773
				l-1.441-4.324h-0.035l-1.459,4.324H66.578z"/>
			<path d="M77.331,141.257v10.582h4.236v2.988h-7.761v-13.57H77.331z"/>
			<path d="M97.693,144.245h-4.201v2.268h3.981v2.988h-3.981v2.338h4.201v2.988h-7.726v-13.57h7.726V144.245z"/>
			<path d="M100.404,154.827v-13.57h3.524l6.469,8.297h0.035v-8.297h3.524v13.57h-3.524l-6.46-8.314h-0.044v8.314H100.404z"/>
			<path d="M122.196,144.245v10.582h-3.524v-10.582h-2.918v-2.988h9.36v2.988H122.196z"/>
			<path d="M133.96,149.264l4.263,5.563h-4.395l-3.322-5.221h-0.044v5.221h-3.524v-13.57h5.273c0.938,0,1.755,0.149,2.452,0.448
				c0.721,0.316,1.271,0.779,1.652,1.389c0.41,0.621,0.615,1.4,0.615,2.338c0,0.633-0.114,1.222-0.343,1.767
				c-0.246,0.551-0.583,0.999-1.011,1.345C135.138,148.9,134.599,149.141,133.96,149.264z M130.462,143.955v3.384h0.343
				c0.486,0,0.896-0.041,1.23-0.123c0.363-0.105,0.656-0.275,0.879-0.51c0.229-0.234,0.343-0.586,0.343-1.055
				c0-0.475-0.114-0.829-0.343-1.063c-0.223-0.234-0.516-0.404-0.879-0.51c-0.322-0.082-0.732-0.123-1.23-0.123H130.462z"/>
			<path d="M147.446,144.245h-4.201v2.268h3.981v2.988h-3.981v2.338h4.201v2.988h-7.726v-13.57h7.726V144.245z"/>
			<path d="M150.157,154.827v-13.57h5.396c0.996,0,1.866,0.155,2.61,0.466c0.727,0.316,1.298,0.814,1.714,1.494
				c0.41,0.662,0.615,1.497,0.615,2.505c0,0.75-0.103,1.438-0.308,2.065c-0.217,0.574-0.53,1.049-0.94,1.424
				c-0.398,0.363-0.902,0.645-1.512,0.844c-0.58,0.182-1.263,0.272-2.048,0.272h-2.004v4.5H150.157z M153.682,144.096v3.384h0.598
				c0.521,0,0.973-0.029,1.354-0.088c0.328-0.053,0.608-0.195,0.839-0.426s0.347-0.611,0.347-1.138c0-0.545-0.108-0.935-0.325-1.169
				c-0.223-0.258-0.498-0.413-0.826-0.466c-0.357-0.064-0.82-0.097-1.389-0.097H153.682z"/>
			<path d="M169.62,149.264l4.263,5.563h-4.395l-3.322-5.221h-0.044v5.221h-3.524v-13.57h5.273c0.938,0,1.755,0.149,2.452,0.448
				c0.721,0.316,1.271,0.779,1.652,1.389c0.41,0.621,0.615,1.4,0.615,2.338c0,0.633-0.114,1.222-0.343,1.767
				c-0.246,0.551-0.583,0.999-1.011,1.345C170.798,148.9,170.259,149.141,169.62,149.264z M166.122,143.955v3.384h0.343
				c0.486,0,0.896-0.041,1.23-0.123c0.363-0.105,0.656-0.275,0.879-0.51c0.229-0.234,0.343-0.586,0.343-1.055
				c0-0.475-0.114-0.829-0.343-1.063c-0.223-0.234-0.516-0.404-0.879-0.51c-0.322-0.082-0.732-0.123-1.23-0.123H166.122z"/>
			<path d="M183.105,144.245h-4.201v2.268h3.982v2.988h-3.982v2.338h4.201v2.988h-7.725v-13.57h7.725V144.245z"/>
			<path d="M185.816,154.827v-13.57h3.525l6.469,8.297h0.035v-8.297h3.523v13.57h-3.523l-6.461-8.314h-0.043v8.314H185.816z"/>
			<path d="M209.938,144.245h-4.201v2.268h3.982v2.988h-3.982v2.338h4.201v2.988h-7.725v-13.57h7.725V144.245z"/>
			<path d="M220.893,141.257h3.525v7.629c0,0.352-0.006,0.662-0.018,0.932s-0.035,0.577-0.07,0.923
				c-0.059,0.551-0.191,1.072-0.396,1.564c-0.182,0.475-0.492,0.932-0.932,1.371c-0.375,0.357-0.809,0.65-1.301,0.879
				c-0.492,0.223-1.008,0.381-1.547,0.475c-0.551,0.105-1.102,0.158-1.652,0.158c-0.85,0-1.684-0.12-2.504-0.36
				c-0.404-0.123-0.768-0.278-1.09-0.466s-0.625-0.416-0.906-0.686c-0.439-0.439-0.752-0.896-0.939-1.371
				c-0.211-0.498-0.344-1.014-0.396-1.547c-0.059-0.598-0.088-1.222-0.088-1.872v-7.629h3.525v7.146c0,0.727,0.049,1.356,0.148,1.89
				c0.082,0.48,0.303,0.905,0.66,1.274c0.352,0.352,0.881,0.527,1.59,0.527c0.703,0,1.23-0.176,1.582-0.527s0.574-0.776,0.668-1.274
				c0.094-0.551,0.141-1.181,0.141-1.89V141.257z"/>
			<path d="M234.213,149.264l4.262,5.563h-4.395l-3.322-5.221h-0.043v5.221h-3.525v-13.57h5.273c0.938,0,1.756,0.149,2.453,0.448
				c0.721,0.316,1.271,0.779,1.652,1.389c0.41,0.621,0.615,1.4,0.615,2.338c0,0.633-0.115,1.222-0.344,1.767
				c-0.246,0.551-0.582,0.999-1.01,1.345C235.391,148.9,234.852,149.141,234.213,149.264z M230.715,143.955v3.384h0.342
				c0.486,0,0.896-0.041,1.23-0.123c0.363-0.105,0.656-0.275,0.879-0.51c0.229-0.234,0.344-0.586,0.344-1.055
				c0-0.475-0.115-0.829-0.344-1.063c-0.223-0.234-0.516-0.404-0.879-0.51c-0.322-0.082-0.732-0.123-1.23-0.123H230.715z"/>
			<path d="M248.832,142.013l-1.406,2.733c-0.732-0.598-1.512-0.896-2.338-0.896c-0.375,0-0.717,0.103-1.027,0.308
				c-0.322,0.193-0.484,0.469-0.484,0.826c0,0.346,0.145,0.609,0.432,0.791c0.27,0.176,0.646,0.343,1.133,0.501l0.896,0.272
				c1.025,0.299,1.85,0.735,2.471,1.31c0.586,0.58,0.879,1.38,0.879,2.399c0,1.641-0.469,2.859-1.406,3.656
				c-1.008,0.85-2.291,1.274-3.85,1.274c-1.699,0-3.291-0.516-4.773-1.547l1.512-2.848c1.061,0.938,2.107,1.406,3.139,1.406
				c0.445,0,0.84-0.12,1.186-0.36s0.52-0.577,0.52-1.011c0-0.439-0.191-0.756-0.572-0.949c-0.357-0.182-0.879-0.381-1.564-0.598
				c-0.809-0.217-1.488-0.463-2.039-0.738c-0.521-0.264-0.924-0.636-1.207-1.116c-0.285-0.48-0.428-1.14-0.428-1.978
				c0-0.902,0.197-1.699,0.59-2.391c0.416-0.703,0.975-1.239,1.678-1.608c0.686-0.369,1.488-0.554,2.408-0.554
				c0.68,0,1.412,0.103,2.197,0.308C247.537,141.397,248.223,141.667,248.832,142.013z"/>
			<path d="M255.129,146.495h5.098v-5.238h3.525v13.57h-3.525v-5.563h-5.098v5.563h-3.523v-13.57h3.523V146.495z"/>
			<path d="M270.127,141.257v13.57h-3.523v-13.57H270.127z"/>
			<path d="M272.979,154.827v-13.57h5.396c0.996,0,1.867,0.155,2.611,0.466c0.727,0.316,1.297,0.814,1.713,1.494
				c0.41,0.662,0.615,1.497,0.615,2.505c0,0.75-0.102,1.438-0.307,2.065c-0.217,0.574-0.531,1.049-0.941,1.424
				c-0.398,0.363-0.902,0.645-1.512,0.844c-0.58,0.182-1.262,0.272-2.047,0.272h-2.004v4.5H272.979z M276.504,144.096v3.384h0.598
				c0.521,0,0.973-0.029,1.354-0.088c0.328-0.053,0.607-0.195,0.84-0.426c0.23-0.231,0.346-0.611,0.346-1.138
				c0-0.545-0.107-0.935-0.324-1.169c-0.223-0.258-0.498-0.413-0.826-0.466c-0.357-0.064-0.82-0.097-1.389-0.097H276.504z"/>
		</g>
	</g>
</g>
</svg>
